<svg width="25" height="25" viewBox="0 0 25 25" fill="none" xmlns="http://www.w3.org/2000/svg">
<path d="M12.7842 2.16504C18.3072 2.16504 22.7842 6.64204 22.7842 12.165C22.7842 17.688 18.3072 22.165 12.7842 22.165C7.26118 22.165 2.78418 17.688 2.78418 12.165C2.78418 6.64204 7.26118 2.16504 12.7842 2.16504ZM12.7842 4.16504C10.6624 4.16504 8.62762 5.00789 7.12733 6.50818C5.62703 8.00848 4.78418 10.0433 4.78418 12.165C4.78418 14.2868 5.62703 16.3216 7.12733 17.8219C8.62762 19.3222 10.6624 20.165 12.7842 20.165C14.9059 20.165 16.9407 19.3222 18.441 17.8219C19.9413 16.3216 20.7842 14.2868 20.7842 12.165C20.7842 10.0433 19.9413 8.00848 18.441 6.50818C16.9407 5.00789 14.9059 4.16504 12.7842 4.16504ZM12.7842 6.16504C13.0291 6.16507 13.2655 6.25499 13.4486 6.41775C13.6316 6.58051 13.7485 6.80479 13.7772 7.04804L13.7842 7.16504L13.7842 11.751L16.4912 14.458C16.6705 14.638 16.7747 14.8795 16.7824 15.1334C16.7902 15.3874 16.701 15.6348 16.5329 15.8253C16.3649 16.0159 16.1306 16.1353 15.8777 16.1594C15.6248 16.1835 15.3722 16.1105 15.1712 15.955L15.0772 15.872L12.0772 12.872C11.9218 12.7165 11.8219 12.514 11.7932 12.296L11.7842 12.165L11.7842 7.16504C11.7842 6.89982 11.8895 6.64547 12.0771 6.45793C12.2646 6.2704 12.519 6.16504 12.7842 6.16504Z" fill="white"/>
</svg>
