<svg width="91" height="90" viewBox="0 0 91 90" fill="none" xmlns="http://www.w3.org/2000/svg">
<rect x="0.526367" width="90" height="90" rx="45" fill="#FFCF87"/>
<path d="M62.3653 27.8656L62.3645 27.8657C56.7205 28.7639 51.3453 30.9005 46.6248 34.1222C41.9044 37.3438 37.9558 41.5706 35.0624 46.4992L35.0613 46.501C33.4667 49.2682 32.2121 52.218 31.3251 55.2861C31.3221 55.2965 31.3197 55.3071 31.318 55.3179C31.2908 55.4856 31.3269 55.6573 31.4189 55.8C31.4613 55.8657 31.5143 55.9232 31.5751 55.9704C30.3084 57.6428 29.0935 59.3577 27.9326 61.1129L27.9325 61.1128L27.9293 61.118C27.8173 61.2958 27.7956 61.4903 27.8547 61.6662C27.9111 61.8341 28.0333 61.9627 28.1713 62.042C28.4458 62.1998 28.8694 62.1989 29.1164 61.8285L29.1169 61.8276C29.9323 60.5941 30.7748 59.3808 31.6436 58.1885C31.7556 58.2243 31.8821 58.2304 32.0165 58.196C39.3042 56.4152 46.0065 52.7777 51.4709 47.6375C56.9357 42.4969 60.976 36.0289 63.1986 28.8631L63.1987 28.8631L63.2 28.8584C63.2538 28.6733 63.232 28.4952 63.1484 28.3476C63.0444 28.0833 62.7724 27.802 62.3653 27.8656ZM44.5207 48.7091L44.7109 48.5189L44.5207 48.7091C44.6495 48.838 44.8243 48.9103 45.0065 48.9103C45.1887 48.9103 45.3634 48.8379 45.4922 48.7091L45.302 48.5189L45.4922 48.7091C45.621 48.5803 45.6935 48.4056 45.6935 48.2234C45.6935 48.0411 45.621 47.8664 45.4922 47.7376C45.3634 47.6088 45.1887 47.5364 45.0065 47.5364C44.8243 47.5364 44.6495 47.6088 44.5207 47.7376C44.3918 47.8665 44.3195 48.0413 44.3195 48.2234C44.3195 48.4055 44.3918 48.5802 44.5207 48.7091ZM33.2165 53.8632C35.3291 47.7839 38.9801 42.3422 43.8273 38.0761C48.8607 33.6461 54.9878 30.6565 61.5622 29.411C59.3292 35.9626 55.5237 41.8728 50.4733 46.6204C45.4851 51.3096 39.44 54.7165 32.8586 56.5573C34.5107 54.3872 36.2516 52.2902 38.076 50.2714C38.1355 50.265 38.194 50.2508 38.2501 50.2292C38.2561 50.2269 38.262 50.2243 38.2678 50.2216L43.1224 49.5258C43.1349 49.524 43.1473 49.5213 43.1595 49.5177C43.2461 49.4925 43.3269 49.4505 43.3973 49.3939C43.4677 49.3374 43.5262 49.2676 43.5696 49.1886C43.613 49.1094 43.6403 49.0225 43.6501 48.9329C43.6599 48.8431 43.6518 48.7524 43.6266 48.6659L43.6266 48.6659L43.6258 48.6632C43.5747 48.4944 43.4606 48.3518 43.3071 48.2648C43.1581 48.1803 42.983 48.1547 42.8163 48.1925L39.5588 48.6674C45.4773 42.4074 52.2201 36.945 59.6215 32.4398L59.6216 32.4398L59.625 32.4377C59.8046 32.3246 59.9061 32.1571 59.9319 31.9757C59.9566 31.8022 59.9102 31.6327 59.8289 31.4982C59.7479 31.3643 59.6197 31.2446 59.4552 31.1888C59.2834 31.1306 59.0914 31.1497 58.9187 31.2645C52.4515 35.2025 46.4789 39.8595 41.1081 45.1323C41.2133 44.5279 41.2765 43.9161 41.2969 43.3012L41.297 43.3012V43.2923C41.297 43.11 41.2246 42.9353 41.0958 42.8065C40.967 42.6777 40.7923 42.6053 40.61 42.6053C40.4278 42.6053 40.2531 42.6777 40.1243 42.8065C39.9969 42.9339 39.9247 43.1062 39.9231 43.2863C39.8746 44.5119 39.6431 45.7233 39.2363 46.8804C39.2332 46.8892 39.2306 46.8981 39.2284 46.9071C39.2173 46.9536 39.2111 47.0007 39.2095 47.0478C37.1104 49.2244 35.1104 51.4984 33.2165 53.8632Z" fill="#101010" stroke="#101010" stroke-width="0.538157" stroke-linejoin="round"/>
</svg>
