<svg width="26" height="20" viewBox="0 0 26 20" fill="none" xmlns="http://www.w3.org/2000/svg">
<path d="M22.9902 16.7109C22.9886 16.9496 22.8931 17.1781 22.7244 17.3471C22.5556 17.516 22.3271 17.6117 22.0884 17.6136H5.71023C5.47097 17.6134 5.2416 17.5181 5.0725 17.3489C4.9034 17.1796 4.80842 16.9501 4.80842 16.7109V15.7955H21.1721V5.15909L13.8993 11.7045L4.80842 3.52272V2.15909C4.80842 1.91799 4.9042 1.68675 5.07468 1.51626C5.24517 1.34577 5.4764 1.25 5.71751 1.25H22.0811C22.3222 1.25 22.5535 1.34577 22.724 1.51626C22.8945 1.68675 22.9902 1.91799 22.9902 2.15909V16.7109ZM7.02115 3.06819L13.8993 9.25909L20.7775 3.06819H7.02115ZM2.99023 12.1591H10.263V13.9772H2.99023V12.1591ZM2.99023 7.61364H7.53568V9.43181H2.99023V7.61364Z" fill="white"/>
</svg>
