<svg width="40" height="40" viewBox="0 0 40 40" fill="none" xmlns="http://www.w3.org/2000/svg">
<g clip-path="url(#clip0_1533_2912)">
<path d="M40.0003 27.5131C40.0003 30.9648 38.0553 34.1098 35.0003 35.6698V39.1665C35.0003 39.6265 34.6269 39.9998 34.1669 39.9998C33.7069 39.9998 33.3336 39.6265 33.3336 39.1665V35.1431C33.3336 34.8115 33.5303 34.5131 33.8319 34.3798C36.5669 33.1831 38.3336 30.4881 38.3336 27.5131C38.3336 25.2831 37.3469 23.1831 35.6253 21.7548C35.3003 21.5665 35.0636 21.6765 35.0003 22.0481V25.6681C35.0003 27.7915 33.5069 29.6348 31.5269 29.9565C29.0586 30.4198 26.6103 28.3531 26.6669 25.8465V22.0481C26.6036 21.6765 26.3669 21.5665 26.0419 21.7548C24.3219 23.1831 23.3336 25.2831 23.3336 27.5131C23.3336 30.4881 25.1003 33.1831 27.8353 34.3798C28.1386 34.5131 28.3336 34.8115 28.3336 35.1431V39.1665C28.3336 39.6265 27.9603 39.9998 27.5003 39.9998C27.0403 39.9998 26.6669 39.6265 26.6669 39.1665V35.6698C23.6119 34.1081 21.6669 30.9648 21.6669 27.5131C21.6669 24.7865 22.8736 22.2198 24.9769 20.4715C26.2286 19.3515 28.3953 20.3681 28.3336 22.0481V25.8465C28.3036 27.3548 29.7669 28.5965 31.2586 28.3115C32.4419 28.1198 33.3336 26.9831 33.3336 25.6681V22.0481C33.2719 20.3681 35.4386 19.3531 36.6903 20.4715C38.7936 22.2198 40.0003 24.7848 40.0003 27.5131ZM23.3553 13.3315C23.3553 18.8481 18.8703 23.3331 13.3553 23.3331C7.84027 23.3331 3.35527 18.8481 3.35527 13.3331L3.35194 11.6665H1.66694C1.20694 11.6665 0.833607 11.2931 0.833607 10.8331C0.833607 10.3731 1.20694 9.99979 1.66694 9.99979H3.35027V9.18146C3.23861 4.24979 7.58194 -0.101873 12.5153 -0.000206584H14.1819C19.2286 -0.000206584 23.3403 4.10479 23.3486 9.15146V9.99979H25.0019C25.4619 9.99979 25.8353 10.3731 25.8353 10.8331C25.8353 11.2931 25.4619 11.6665 25.0019 11.6665H23.3536L23.3569 13.3315H23.3553ZM5.01694 9.99979H21.6819V9.15479C21.6753 5.90146 19.5719 3.15479 16.6669 2.12313V5.83313C16.6669 6.29313 16.2936 6.66646 15.8336 6.66646C15.3736 6.66646 15.0003 6.29313 15.0003 5.83313V1.74979C14.7269 1.71979 14.4619 1.66646 14.1803 1.66646H12.5136C12.2253 1.66646 11.9469 1.71813 11.6653 1.74979V5.83313C11.6653 6.29313 11.2919 6.66646 10.8319 6.66646C10.3719 6.66646 9.99861 6.29313 9.99861 5.83313V2.12479C8.96361 2.49313 8.00527 3.06646 7.20527 3.86646C5.78861 5.28646 5.01027 7.17146 5.01361 9.17813V9.99979H5.01694ZM21.6903 13.3331L21.6869 11.6665H5.01861L5.02194 13.3315C5.02194 17.9281 8.76027 21.6665 13.3553 21.6665C17.9503 21.6665 21.6886 17.9281 21.6886 13.3331H21.6903ZM17.7786 25.7515C16.3603 25.2531 14.8719 24.9998 13.3569 24.9998C6.00361 24.9998 0.0219399 30.9815 0.0219399 38.3115L0.000273279 39.1448C-0.0113934 39.6048 0.35194 39.9865 0.81194 39.9998H0.833607C1.28361 39.9998 1.65527 39.6398 1.66694 39.1881L1.68861 38.3331C1.68861 31.8998 6.92194 26.6665 13.3553 26.6665C14.6819 26.6665 15.9836 26.8881 17.2253 27.3231C17.6536 27.4731 18.1336 27.2481 18.2869 26.8131C18.4403 26.3798 18.2136 25.9031 17.7786 25.7515Z" fill="black"/>
</g>
<defs>
<clipPath id="clip0_1533_2912">
<rect width="40" height="40" fill="white"/>
</clipPath>
</defs>
</svg>
