<svg width="42" height="42" viewBox="0 0 42 42" fill="none" xmlns="http://www.w3.org/2000/svg">
<path d="M4.5 19.25C4.5 16.8973 6.39728 15 8.75 15H11.375C12.7477 15 13.875 16.1273 13.875 17.5V35C13.875 36.3727 12.7477 37.5 11.375 37.5H8.75C6.39728 37.5 4.5 35.6027 4.5 33.25V19.25ZM9.1875 32.0625C10.4573 32.0625 11.5 31.0198 11.5 29.75V22.75C11.5 21.4802 10.4573 20.4375 9.1875 20.4375C7.91772 20.4375 6.875 21.4802 6.875 22.75V29.75C6.875 31.0198 7.91772 32.0625 9.1875 32.0625Z" fill="url(#paint0_linear_1536_3623)" fill-opacity="0.2" stroke="white" stroke-width="2"/>
<path d="M22.75 4.49951H33.25C35.6027 4.49951 37.5 6.3968 37.5 8.74951V33.2495C37.5 35.6022 35.6027 37.4995 33.25 37.4995H32.5V31.4995C32.5 29.9847 31.2648 28.7495 29.75 28.7495H26.25C24.7352 28.7495 23.5 29.9847 23.5 31.4995V37.4995H22.75C20.3973 37.4995 18.5 35.6022 18.5 33.2495V8.74951C18.5 6.3968 20.3973 4.49951 22.75 4.49951ZM24.5 25.062C25.7698 25.062 26.8125 24.0193 26.8125 22.7495V13.9995C26.8125 12.7297 25.7698 11.687 24.5 11.687C23.2302 11.687 22.1875 12.7297 22.1875 13.9995V22.7495C22.1875 24.0193 23.2302 25.062 24.5 25.062ZM31.5 25.062C32.7698 25.062 33.8125 24.0193 33.8125 22.7495V13.9995C33.8125 12.7297 32.7698 11.687 31.5 11.687C30.2302 11.687 29.1875 12.7297 29.1875 13.9995V22.7495C29.1875 24.0193 30.2302 25.062 31.5 25.062Z" fill="url(#paint1_linear_1536_3623)" fill-opacity="0.2" stroke="white" stroke-width="2"/>
<defs>
<linearGradient id="paint0_linear_1536_3623" x1="9.1875" y1="14" x2="9.1875" y2="38.5" gradientUnits="userSpaceOnUse">
<stop stop-color="white"/>
<stop offset="1" stop-color="white" stop-opacity="0.5"/>
</linearGradient>
<linearGradient id="paint1_linear_1536_3623" x1="28" y1="3.49951" x2="28" y2="38.4995" gradientUnits="userSpaceOnUse">
<stop stop-color="white"/>
<stop offset="1" stop-color="white" stop-opacity="0.5"/>
</linearGradient>
</defs>
</svg>
