<svg width="42" height="42" viewBox="0 0 42 42" fill="none" xmlns="http://www.w3.org/2000/svg">
<path d="M31.1354 24.5414L31.1357 24.5292V24.517C31.1357 23.249 30.1307 22.1901 28.829 22.187L21.0732 22.1095V19.812H24.9907C26.2605 19.812 27.3032 18.7693 27.3032 17.4995C27.3032 16.2297 26.2605 15.187 24.9907 15.187H21.0732V12.812H28.8232C30.093 12.812 31.1357 11.7693 31.1357 10.4995C31.1357 9.22973 30.093 8.18701 28.8232 8.18701H21.1829C21.6297 6.15571 23.3814 4.49951 25.3232 4.49951H32.3232C34.6606 4.49951 36.5732 6.39897 36.5732 8.74951V33.2495C36.5732 35.6001 34.6606 37.4995 32.3232 37.4995H25.3232C23.3814 37.4995 21.6297 35.8433 21.1829 33.812H26.8982C28.1942 33.812 29.2107 32.7606 29.2107 31.4995C29.2107 30.2384 28.1942 29.187 26.8982 29.187H21.0732V26.7346L28.7957 26.812V26.812H28.8057H28.8058H28.8058H28.8058H28.8058H28.8058H28.8058H28.8058H28.8059H28.8059H28.8059H28.8059H28.8059H28.8059H28.806H28.806H28.806H28.806H28.806H28.806H28.8061H28.8061H28.8061H28.8061H28.8061H28.8061H28.8062H28.8062H28.8062H28.8062H28.8062H28.8062H28.8063H28.8063H28.8063H28.8063H28.8063H28.8064H28.8064H28.8064H28.8064H28.8065H28.8065H28.8065H28.8065H28.8066H28.8066H28.8066H28.8066H28.8066H28.8067H28.8067H28.8067H28.8067H28.8067H28.8067H28.8068H28.8068H28.8068H28.8068H28.8068H28.8068H28.8068H28.8069H28.8069H28.8069H28.8069H28.8069H28.8069H28.807H28.807H28.807H28.807H28.807H28.8071H28.8071H28.8071H28.8071H28.8071H28.8071H28.8072H28.8072H28.8072H28.8072H28.8072H28.8073H28.8073H28.8073H28.8073H28.8073H28.8074H28.8074H28.8074H28.8074H28.8075H28.8075H28.8075H28.8075H28.8075H28.8076H28.8076H28.8076H28.8076H28.8077H28.8077H28.8077H28.8077H28.8078H28.8078H28.8078H28.8078H28.8079H28.8079H28.8079H28.8079H28.808H28.808H28.808H28.808H28.8081H28.8081H28.8081H28.8081H28.8082H28.8082H28.8082H28.8083H28.8083H28.8083H28.8083H28.8084H28.8084H28.8084H28.8085H28.8085H28.8085H28.8085H28.8086H28.8086H28.8086H28.8087H28.8087H28.8087H28.8088H28.8088H28.8088H28.8089H28.8089H28.8089H28.809H28.809H28.809H28.8091H28.8091H28.8091H28.8092H28.8092H28.8092H28.8093H28.8093H28.8093H28.8094H28.8094H28.8094H28.8095H28.8095H28.8096H28.8096H28.8096H28.8097H28.8097H28.8097H28.8098H28.8098H28.8099H28.8099H28.8099H28.81H28.81H28.8101H28.8101H28.8101H28.8102H28.8102H28.8103H28.8103H28.8103H28.8104H28.8104H28.8105H28.8105H28.8106H28.8106H28.8106H28.8107H28.8107H28.8108H28.8108H28.8109H28.8109H28.811H28.811H28.811H28.8111H28.8111H28.8112H28.8112H28.8113H28.8113H28.8114H28.8114H28.8115H28.8115H28.8116H28.8116H28.8117H28.8117H28.8118H28.8118H28.8119H28.8119H28.812H28.812H28.8121H28.8121H28.8122H28.8122H28.8123H28.8123H28.8124H28.8125H28.8125H28.8126H28.8126H28.8127H28.8127H28.8128H28.8128H28.8129H28.813H28.813H28.8131H28.8131H28.8132H28.8132H28.8133H28.8134H28.8134H28.8135H28.8135H28.8136H28.8137H28.8137H28.8138H28.8138H28.8139H28.814H28.814H28.8141H28.8141H28.8142H28.8143H28.8143H28.8144H28.8145H28.8145H28.8146H28.8147H28.8147H28.8148H28.8149H28.8149H28.815H28.8151H28.8151H28.8152H28.8153H28.8153H28.8154H28.8155H28.8155H28.8156H28.8157H28.8157H28.8158H28.8159H28.816H28.816H28.8161H28.8162H28.8163H28.8163H28.8164H28.8165H28.8165H28.8166H28.8167H28.8168H28.8168H28.8169H28.817H28.8171H28.8172H28.8172H28.8173H28.8174H28.8175H28.8175H28.8176H28.8177H28.8178H28.8179H28.8179H28.818H28.8181H28.8182H28.8183H28.8183H28.8184H28.8185H28.8186H28.8187H28.8188H28.8188H28.8189H28.819H28.8191H28.8192H28.8193H28.8194H28.8195H28.8195H28.8196H28.8197H28.8198H28.8199H28.82H28.8201H28.8202H28.8203H28.8203H28.8204H28.8205H28.8206H28.8207H28.8208H28.8209H28.821H28.8211H28.8212H28.8213H28.8214H28.8215H28.8216H28.8217H28.8217H28.8218H28.8219H28.822H28.8221H28.8222H28.8223H28.8224H28.8225H28.8226H28.8227H28.8228H28.8229H28.823H28.8231H28.8232C30.0975 26.812 31.1051 25.7874 31.1354 24.5414Z" fill="url(#paint0_linear_1536_3629)" fill-opacity="0.2" stroke="white" stroke-width="2"/>
<path d="M13.7712 8.66201V9.93701H5.42871V8.66201C5.42871 6.38149 7.30629 4.49951 9.60871 4.49951C11.8914 4.49951 13.7712 6.3793 13.7712 8.66201Z" fill="url(#paint1_linear_1536_3629)" fill-opacity="0.2" stroke="white" stroke-width="2"/>
<path d="M6.04037 33.4913L6.03368 33.48L6.0267 33.469C5.88636 33.2468 5.73078 32.8783 5.61029 32.4488C5.49031 32.0212 5.42871 31.6172 5.42871 31.343V14.563H13.7712V31.343C13.7712 31.6176 13.7095 32.0224 13.5907 32.4529C13.4716 32.8842 13.3182 33.258 13.1807 33.4852L13.1798 33.4866L11.7448 35.8666L11.7448 35.8666L11.7418 35.8717C11.0338 37.0618 10.229 37.4567 9.60652 37.4567C8.9829 37.4567 8.17348 37.0605 7.45674 35.8694C7.4564 35.8688 7.45606 35.8683 7.45572 35.8677L6.04037 33.4913Z" fill="url(#paint2_linear_1536_3629)" fill-opacity="0.2" stroke="white" stroke-width="2"/>
<defs>
<linearGradient id="paint0_linear_1536_3629" x1="28.8232" y1="3.49951" x2="28.8232" y2="38.4995" gradientUnits="userSpaceOnUse">
<stop stop-color="white"/>
<stop offset="1" stop-color="white" stop-opacity="0.5"/>
</linearGradient>
<linearGradient id="paint1_linear_1536_3629" x1="9.59996" y1="3.49951" x2="9.59996" y2="10.937" gradientUnits="userSpaceOnUse">
<stop stop-color="white"/>
<stop offset="1" stop-color="white" stop-opacity="0.5"/>
</linearGradient>
<linearGradient id="paint2_linear_1536_3629" x1="9.59996" y1="13.563" x2="9.59996" y2="38.4567" gradientUnits="userSpaceOnUse">
<stop stop-color="white"/>
<stop offset="1" stop-color="white" stop-opacity="0.5"/>
</linearGradient>
</defs>
</svg>
