<svg width="42" height="42" viewBox="0 0 42 42" fill="none" xmlns="http://www.w3.org/2000/svg">
<path d="M37.4463 31.5005V33.2505C37.4463 33.9882 37.4447 34.6086 37.3727 35.1593C37.3019 35.7011 37.1713 36.0941 36.9668 36.3906C36.5987 36.9243 35.725 37.5005 33.1963 37.5005H8.69629C6.16755 37.5005 5.29384 36.9243 4.92575 36.3906C4.72127 36.0941 4.5907 35.7011 4.51988 35.1593C4.4479 34.6086 4.44629 33.9882 4.44629 33.2505V31.5005C4.44629 31.0903 4.78607 30.7505 5.19629 30.7505H36.6963C37.1065 30.7505 37.4463 31.0903 37.4463 31.5005Z" fill="url(#paint0_linear_1536_3636)" fill-opacity="0.2" stroke="white" stroke-width="2"/>
<path d="M24.2475 8.82255L23.997 9.82443L25.0065 10.0425C30.8744 11.3104 35.2602 16.5119 35.2602 22.7501V25.3751C35.2602 25.7853 34.9204 26.1251 34.5102 26.1251H7.47266C7.06244 26.1251 6.72266 25.7853 6.72266 25.3751V22.7501C6.72266 16.5117 11.1257 11.2942 16.9913 10.0431L18.0257 9.82244L17.7474 8.80197C17.666 8.50346 17.6252 8.20698 17.6252 7.87509C17.6252 5.71767 19.6739 4.01335 21.9611 4.6396L21.9664 4.64104C23.445 5.0371 24.4126 6.38188 24.3758 7.97852C24.3612 8.27003 24.3196 8.53412 24.2475 8.82255ZM22.2251 3.67526L22.2252 3.67509L22.2251 3.67526ZM15.7502 21.5626H26.2502C27.5199 21.5626 28.5627 20.5199 28.5627 19.2501C28.5627 17.9803 27.5199 16.9376 26.2502 16.9376H15.7502C14.4804 16.9376 13.4377 17.9803 13.4377 19.2501C13.4377 20.5199 14.4804 21.5626 15.7502 21.5626Z" fill="url(#paint1_linear_1536_3636)" fill-opacity="0.2" stroke="white" stroke-width="2"/>
<defs>
<linearGradient id="paint0_linear_1536_3636" x1="20.9463" y1="29.7505" x2="20.9463" y2="38.5005" gradientUnits="userSpaceOnUse">
<stop stop-color="white"/>
<stop offset="1" stop-color="white" stop-opacity="0.5"/>
</linearGradient>
<linearGradient id="paint1_linear_1536_3636" x1="20.9914" y1="3.50732" x2="20.9914" y2="27.1251" gradientUnits="userSpaceOnUse">
<stop stop-color="white"/>
<stop offset="1" stop-color="white" stop-opacity="0.5"/>
</linearGradient>
</defs>
</svg>
