<svg width="42" height="42" viewBox="0 0 42 42" fill="none" xmlns="http://www.w3.org/2000/svg">
<path d="M14.0128 34.2051L14.0131 34.2038L14.9231 30.1438L14.9231 30.1438L14.9245 30.1375C14.9964 29.807 15.2949 29.5601 15.6623 29.5601H26.3198C26.6696 29.5601 26.9725 29.7922 27.061 30.1524L27.969 34.1859C27.969 34.186 27.969 34.186 27.969 34.1861C28.1796 35.1274 27.9321 35.9227 27.4049 36.4941C26.8663 37.0779 25.9639 37.5001 24.7623 37.5001H17.2023C14.9976 37.5001 13.6603 35.7681 14.0128 34.2051Z" fill="url(#paint0_linear_1536_3642)" fill-opacity="0.2" stroke="white" stroke-width="2"/>
<path d="M11.6304 24.8474L11.6305 24.8473L11.6217 24.8395L9.78421 23.1945L9.768 23.1799L9.75118 23.1662C8.30763 21.9828 7.81871 21.1203 7.76024 20.3923C7.70037 19.6467 8.06142 18.7091 9.18241 17.2994L9.18392 17.2975L18.3364 5.73L18.3455 5.71852L18.3542 5.70678C18.4712 5.54967 18.5944 5.40724 18.7222 5.27874V11.9945C18.6991 13.2942 19.7353 14.3525 21.0346 14.3347C22.3621 14.3533 23.3355 13.2715 23.3644 12.0278L23.3647 12.0161V12.0045V5.28525C23.4954 5.41375 23.6248 5.5566 23.7523 5.71478L32.8649 17.2936C32.8651 17.2938 32.8652 17.294 32.8654 17.2942C33.9668 18.7008 34.3053 19.6152 34.2399 20.3534C34.1745 21.0913 33.6775 21.9633 32.2731 23.2072C32.2726 23.2076 32.2722 23.208 32.2717 23.2084L30.4054 24.848C29.9329 25.2555 29.3417 25.477 28.7522 25.477H13.2822C12.6651 25.477 12.0689 25.2493 11.6304 24.8474Z" fill="url(#paint1_linear_1536_3642)" fill-opacity="0.2" stroke="white" stroke-width="2"/>
<defs>
<linearGradient id="paint0_linear_1536_3642" x1="20.9985" y1="28.5601" x2="20.9985" y2="38.5001" gradientUnits="userSpaceOnUse">
<stop stop-color="white"/>
<stop offset="1" stop-color="white" stop-opacity="0.5"/>
</linearGradient>
<linearGradient id="paint1_linear_1536_3642" x1="21.0008" y1="3.49951" x2="21.0008" y2="26.477" gradientUnits="userSpaceOnUse">
<stop stop-color="white"/>
<stop offset="1" stop-color="white" stop-opacity="0.5"/>
</linearGradient>
</defs>
</svg>
