<svg width="42" height="42" viewBox="0 0 42 42" fill="none" xmlns="http://www.w3.org/2000/svg">
<path d="M11.0704 33.7504L11.0579 33.7629L11.0458 33.7759C10.3286 34.5457 9.6975 34.9981 9.19115 35.2167C8.69461 35.4311 8.3798 35.3991 8.18526 35.3153C7.98341 35.2284 7.72069 35.0035 7.49857 34.4589C7.27513 33.911 7.125 33.1082 7.125 32.025V12.32C7.125 8.77849 7.56249 6.95554 8.50463 5.94849C9.42457 4.96516 11.0795 4.5 14.385 4.5H27.615C30.9209 4.5 32.575 4.96533 33.4926 5.94785C34.4321 6.9539 34.8663 8.7759 34.8575 12.3175V12.32V32.0075C34.8575 33.0914 34.7083 33.8947 34.4858 34.4429C34.2645 34.9879 34.003 35.2118 33.8031 35.2981C33.6104 35.3813 33.2965 35.4138 32.7983 35.199C32.2906 34.9801 31.6572 34.5273 30.9354 33.757C30.0301 32.7861 28.843 32.2999 27.6438 32.3652C26.4444 32.4305 25.3173 33.0428 24.5225 34.1025L24.5218 34.1034L22.7577 36.4614C22.7573 36.462 22.7568 36.4626 22.7564 36.4631C22.2083 37.1862 21.5606 37.4694 20.9913 37.4694C20.422 37.4694 19.7743 37.1863 19.2263 36.4633C19.2258 36.4627 19.2253 36.4621 19.2248 36.4614L17.461 34.1038C17.4609 34.1038 17.4609 34.1037 17.4608 34.1036C17.4608 34.1035 17.4607 34.1035 17.4607 34.1034C15.8463 31.9438 12.936 31.784 11.078 33.7427L11.0704 33.7504ZM15.75 21.5625H26.25C27.5198 21.5625 28.5625 20.5198 28.5625 19.25C28.5625 17.9802 27.5198 16.9375 26.25 16.9375H15.75C14.4802 16.9375 13.4375 17.9802 13.4375 19.25C13.4375 20.5198 14.4802 21.5625 15.75 21.5625ZM14 14.5625H28C29.2698 14.5625 30.3125 13.5198 30.3125 12.25C30.3125 10.9802 29.2698 9.9375 28 9.9375H14C12.7302 9.9375 11.6875 10.9802 11.6875 12.25C11.6875 13.5198 12.7302 14.5625 14 14.5625Z" fill="url(#paint0_linear_1536_3648)" fill-opacity="0.2" stroke="white" stroke-width="2"/>
<defs>
<linearGradient id="paint0_linear_1536_3648" x1="20.9913" y1="3.5" x2="20.9913" y2="38.4694" gradientUnits="userSpaceOnUse">
<stop stop-color="white"/>
<stop offset="1" stop-color="white" stop-opacity="0.5"/>
</linearGradient>
</defs>
</svg>
