<svg width="91" height="90" viewBox="0 0 91 90" fill="none" xmlns="http://www.w3.org/2000/svg">
<rect x="0.420898" width="90" height="90" rx="45" fill="#FFCF87"/>
<path d="M35.6566 39.4028C35.5748 39.2894 35.5288 39.1481 35.5288 38.9887V38.987C35.5457 36.1818 36.1442 33.4106 37.2866 30.8485C37.2891 30.8428 37.2919 30.8372 37.2948 30.8316C38.2629 29.002 39.8431 27.345 41.7202 26.485C43.609 25.6197 45.7962 25.565 47.922 26.9491C50.0415 28.329 51.0507 30.4057 51.487 32.6534C51.9179 34.8734 51.7948 37.2841 51.6238 39.4028H57.6985C57.8916 39.3331 58.1135 39.3452 58.297 39.4297C58.5116 39.5286 58.689 39.7365 58.6935 40.0345L60.423 63.1232C60.4673 63.31 60.4425 63.5196 60.3406 63.6926C60.2273 63.8849 60.0228 64.0217 59.754 64.0234C59.7523 64.0234 59.7506 64.0234 59.7489 64.0234V63.7443C50.2944 64.0537 40.8297 63.7119 31.422 62.7215L35.6566 39.4028ZM35.6566 39.4028H31.2317C31.0427 39.4028 30.8615 39.4779 30.7279 39.6115C30.5944 39.7451 30.5192 39.9263 30.5192 40.1153C30.5192 40.2582 30.5622 40.3967 30.6409 40.5134C30.6408 40.5165 30.6407 40.5195 30.6406 40.5226L30.6405 40.5225L30.6404 40.5282L30.3977 62.3714H30.3977V62.3745C30.3977 62.5635 30.4728 62.7447 30.6064 62.8783L30.6064 62.8783C30.74 63.0119 30.9212 63.0869 31.1102 63.0869C31.2273 63.0869 31.3415 63.0581 31.4432 63.0043L35.6566 39.4028ZM43.9324 49.3276C43.8794 49.294 43.8155 49.2787 43.751 49.2861C43.6277 49.3003 43.5029 49.2867 43.3855 49.2462C43.2682 49.2058 43.1614 49.1396 43.073 49.0525C42.9846 48.9653 42.9169 48.8595 42.8748 48.7427C42.833 48.6267 42.8175 48.5028 42.8296 48.38C42.8632 48.0961 42.9694 47.8256 43.138 47.5948C43.3071 47.3633 43.5331 47.1794 43.7942 47.0611C43.7992 47.0588 43.8042 47.0564 43.8091 47.0538C44.2406 46.8262 45.058 46.6154 45.7968 46.648C46.164 46.6642 46.4873 46.7396 46.7285 46.8816C46.9575 47.0164 47.1194 47.2141 47.1822 47.5094C47.2128 47.7975 47.1568 48.0882 47.0211 48.3443C46.8835 48.6039 46.6705 48.8158 46.4101 48.952C46.4019 48.9562 46.394 48.9609 46.3863 48.966C46.1616 49.1134 45.899 49.2052 45.6046 49.3063L45.5811 49.3144C45.2685 49.4217 44.9063 49.5461 44.6255 49.7837C44.5611 49.8382 44.504 49.8995 44.4533 49.9658C44.4458 49.8157 44.3962 49.6563 44.2866 49.5292C44.1958 49.424 44.0741 49.3534 43.9324 49.3276ZM43.7746 50.7438C43.9244 50.742 44.0546 50.6954 44.1594 50.6195C44.1427 50.687 44.1287 50.7549 44.117 50.8223C44.0488 51.215 44.0498 51.643 44.0767 52.0107L44.0768 52.0112L44.2841 54.7757C44.2873 54.9929 44.3805 55.1714 44.5257 55.2913C44.6669 55.4079 44.8441 55.4592 45.0095 55.4592C45.1744 55.4592 45.3529 55.408 45.4923 55.2866C45.6395 55.1584 45.7223 54.9692 45.7084 54.7467L45.7084 54.7467L45.7082 54.7432L45.5009 51.9791C45.4997 51.8667 45.4819 51.7341 45.4661 51.6162L45.4645 51.6038C45.4441 51.4518 45.4253 51.3087 45.4239 51.1799C45.4226 51.0456 45.4416 50.971 45.4624 50.9357C45.4809 50.9042 45.5254 50.8637 45.6279 50.8232C45.7299 50.7828 45.8506 50.7569 45.9862 50.7285L45.9956 50.7266C46.0775 50.7095 46.1723 50.6897 46.2536 50.6635C46.9656 50.4788 47.5949 50.0599 48.0402 49.4743C48.4873 48.8861 48.7226 48.1641 48.708 47.4255C48.7078 47.4164 48.7072 47.4074 48.7061 47.3984C48.6071 46.5568 48.129 46.0061 47.5089 45.6838C46.9049 45.3699 46.1682 45.2713 45.5007 45.2967C44.7552 45.2611 44.0142 45.4326 43.3601 45.7923C42.7023 46.1541 42.1583 46.6921 41.7891 47.3458L41.7891 47.3458L41.7872 47.3492C41.5933 47.7038 41.4917 48.1016 41.4917 48.5058C41.4917 48.9101 41.5933 49.3078 41.7872 49.6625L41.7872 49.6625L41.7902 49.6677C41.9894 50.0144 42.2813 50.2987 42.6332 50.4887C42.9829 50.6776 43.378 50.7658 43.7746 50.7438ZM50.1989 39.3929C50.1984 39.3962 50.1979 39.3995 50.1974 39.4028H36.8114C36.8902 39.2993 36.9431 39.1671 36.9532 39.0061C36.9578 38.9331 36.9335 38.8613 36.8858 38.8062C36.9204 36.0966 37.5852 33.4315 38.8289 31.0221C39.3919 29.9589 40.2257 29.0633 41.2461 28.4259C42.2627 27.7909 43.4286 27.4347 44.6264 27.393C45.7196 27.4745 46.7664 27.8686 47.6422 28.5283C48.5207 29.1901 49.1898 30.0912 49.5691 31.1235C50.4506 33.7872 50.6668 36.6263 50.1989 39.3929ZM58.959 62.6227C49.9042 62.8845 40.8419 62.5485 31.8311 61.6168L32.0621 40.8278H57.3264L58.959 62.6227Z" fill="#101010" stroke="#101010" stroke-width="0.558134" stroke-linejoin="round"/>
</svg>
