<svg width="90" height="90" viewBox="0 0 90 90" fill="none" xmlns="http://www.w3.org/2000/svg">
<rect width="90" height="90" rx="45" fill="#FFCF87"/>
<path d="M43.362 49.5633C43.1973 49.5823 43.0305 49.5641 42.8737 49.5101C42.717 49.4561 42.5743 49.3676 42.4562 49.2512C42.3381 49.1348 42.2476 48.9934 42.1914 48.8374C42.1351 48.6814 42.1146 48.5148 42.1313 48.3498C42.1701 48.0173 42.2943 47.7005 42.4918 47.4302C42.6892 47.1598 42.9531 46.9451 43.258 46.8069C44.2115 46.3042 46.7252 45.9228 47.0372 47.4657C47.0771 47.8136 47.0108 48.1655 46.8468 48.475C46.6828 48.7844 46.4288 49.0369 46.1185 49.1993C45.8596 49.3692 45.563 49.4711 45.2744 49.5703C44.9446 49.6836 44.6253 49.7933 44.3849 49.9967C43.9342 50.3781 43.8822 51.2796 43.9342 51.9903L44.1422 54.7641C44.1422 55.3188 45.0437 55.3188 45.009 54.7641L44.801 51.9903C44.801 51.8945 44.7846 51.7725 44.767 51.6409C44.7272 51.344 44.6808 50.9984 44.801 50.7942C44.929 50.5764 45.2463 50.5101 45.5082 50.4554C45.6008 50.436 45.6865 50.4181 45.7544 50.3955C46.4092 50.2276 46.988 49.8435 47.3971 49.3054C47.8062 48.7673 48.0214 48.1068 48.0081 47.431C47.8347 45.9575 46.3612 45.5241 45.0784 45.5761C44.3804 45.5405 43.6861 45.7 43.0737 46.0368C42.4613 46.3737 41.9549 46.8745 41.6112 47.483C41.4398 47.7967 41.3499 48.1484 41.3499 48.5058C41.3499 48.8633 41.4398 49.215 41.6112 49.5287C41.7846 49.8304 42.0387 50.0778 42.3449 50.2432C42.6511 50.4085 42.9974 50.4853 43.3448 50.4648C43.8822 50.4648 43.8995 49.546 43.3448 49.598L43.362 49.5633Z" fill="#101010"/>
<path fill-rule="evenodd" clip-rule="evenodd" d="M38.1607 30.8928C36.8682 33.3962 36.1908 36.1714 36.1845 38.9887H36.2538C36.2191 39.5434 35.387 39.5434 35.387 38.9887C35.4036 36.2221 35.9939 33.489 37.1206 30.9622C39.0102 27.391 43.2749 24.5305 47.3488 27.1829C51.4227 29.8353 51.2667 35.1748 50.92 39.4394C50.9108 39.5376 50.8777 39.6184 50.8294 39.6819H57.3325C57.5892 39.5596 57.9936 39.6862 57.9936 40.0462L59.7256 63.1685C59.7963 63.4204 59.6638 63.7443 59.328 63.7443C49.8735 64.0537 40.4088 63.7119 31.0011 62.7215C30.9859 62.7201 30.9711 62.7181 30.9568 62.7155C30.8808 62.7751 30.7867 62.8079 30.6893 62.8079C30.5743 62.8079 30.4641 62.7622 30.3828 62.681C30.3016 62.5997 30.2559 62.4894 30.2559 62.3745L30.4986 40.5313C30.4997 40.4949 30.5044 40.461 30.5122 40.4294L30.5044 40.4217C30.4231 40.3405 30.3774 40.2302 30.3774 40.1153C30.3774 40.0003 30.4231 39.8901 30.5044 39.8088C30.5857 39.7275 30.6959 39.6819 30.8108 39.6819H50.1211C50.0787 39.6184 50.0532 39.5376 50.0532 39.4394C50.5289 36.6264 50.3087 33.7398 49.4118 31.0315C49.0141 29.947 48.3118 29.0004 47.3892 28.3054C46.4666 27.6104 45.3631 27.1966 44.211 27.1136C42.9589 27.1545 41.7399 27.5255 40.6774 28.1892C39.6149 28.8529 38.7467 29.7856 38.1607 30.8928ZM31.1283 61.868C40.3316 62.8312 49.5892 63.1736 58.8382 62.893L57.1645 40.5487H31.3652L31.1283 61.868Z" fill="#101010"/>
<path fill-rule="evenodd" clip-rule="evenodd" d="M37.1201 30.9626C39.0097 27.3914 43.2744 24.531 47.3483 27.1834C51.3224 29.7707 51.2714 34.9149 50.9446 39.1242C50.9364 39.23 50.928 39.3353 50.9195 39.4399C50.9103 39.5381 50.8772 39.6189 50.8289 39.6823H57.3321C57.5887 39.56 57.9932 39.6867 57.9932 40.0466L59.7252 63.169C59.7959 63.4209 59.6633 63.7448 59.3276 63.7448C49.873 64.0541 40.4083 63.7124 31.0007 62.7219C30.9855 62.7205 30.9707 62.7185 30.9563 62.716C30.8804 62.7755 30.7863 62.8083 30.6888 62.8083C30.5739 62.8083 30.4636 62.7627 30.3824 62.6814C30.3011 62.6001 30.2554 62.4899 30.2554 62.3749L30.4981 40.5317C30.4993 40.4954 30.504 40.4614 30.5118 40.4299L30.5039 40.4222C30.4226 40.3409 30.3769 40.2307 30.3769 40.1157C30.3769 40.0008 30.4226 39.8906 30.5039 39.8093C30.5852 39.728 30.6954 39.6823 30.8103 39.6823H50.1206C50.0783 39.6189 50.0527 39.5381 50.0527 39.4399C50.0705 39.3347 50.0873 39.2295 50.1031 39.1242C50.5111 36.4114 50.2747 33.639 49.4113 31.0319C49.0137 29.9475 48.3113 29.0009 47.3888 28.3059C46.4662 27.6109 45.3626 27.197 44.2105 27.114C42.9585 27.1549 41.7394 27.526 40.6769 28.1897C39.6144 28.8533 38.7462 29.786 38.1602 30.8933C36.9532 33.2311 36.2826 35.8061 36.1941 38.431C36.1878 38.6154 36.1845 38.8 36.184 38.9848C36.184 38.9862 36.184 38.9877 36.184 38.9891H36.2533C36.2533 38.9891 36.2533 38.9892 36.2533 38.9891C36.2502 39.0385 36.2408 39.0836 36.2262 39.1242C36.215 39.1553 36.2008 39.1839 36.184 39.2099C36.1009 39.3386 35.9558 39.4037 35.812 39.4052C35.6357 39.407 35.4613 39.3133 35.4052 39.1242C35.3931 39.0836 35.3865 39.0386 35.3865 38.9891C35.4032 36.2225 35.9935 33.4895 37.1201 30.9626ZM34.8369 39.1242C34.8312 39.0801 34.8284 39.035 34.8284 38.9891V38.9858C34.8455 36.142 35.4523 33.3327 36.6104 30.7353C36.6155 30.7239 36.6209 30.7126 36.6268 30.7016C37.6182 28.8279 39.2399 27.1217 41.1826 26.2317C43.1486 25.3311 45.4382 25.2738 47.6529 26.7156C49.855 28.1494 50.894 30.3047 51.3396 32.6007C51.7577 34.755 51.6624 37.0761 51.5044 39.1242H57.2323C57.4842 39.0477 57.7606 39.0699 57.9924 39.1767C58.2881 39.3129 58.5414 39.6064 58.551 40.0219L60.2784 63.0825C60.3309 63.3291 60.2962 63.603 60.1597 63.8347C59.9994 64.1067 59.708 64.2992 59.3384 64.3028C49.9034 64.6112 40.4584 64.2729 31.0697 63.2904C30.9501 63.3401 30.8208 63.3665 30.6888 63.3665C30.4258 63.3665 30.1737 63.262 29.9877 63.0761C29.8018 62.8902 29.6973 62.638 29.6973 62.3749V62.3687L29.9393 40.5895C29.861 40.4454 29.8188 40.2828 29.8188 40.1157C29.8188 39.8527 29.9234 39.6005 30.1093 39.4146C30.2952 39.2287 30.5473 39.1242 30.8103 39.1242H34.8369ZM36.7997 39.1242H49.5385C49.9504 36.4746 49.7266 33.7638 48.8843 31.2159C48.5232 30.2358 47.8874 29.3803 47.0529 28.7517C46.2239 28.1271 45.2338 27.7529 44.1995 27.6729C43.056 27.7154 41.9434 28.0567 40.9726 28.663C39.9943 29.2741 39.1948 30.1327 38.6548 31.1519C37.4446 33.497 36.7915 36.0884 36.7448 38.7246C36.7937 38.8155 36.8169 38.9191 36.8104 39.0239C36.8082 39.0583 36.8046 39.0917 36.7997 39.1242ZM44.3104 50.0683C44.1491 50.2428 44.0481 50.493 43.989 50.7743C43.9079 51.1598 43.9054 51.6036 43.9337 51.9908L44.1417 54.7645C44.1417 55.3193 45.0432 55.3193 45.0085 54.7645L44.8005 51.9908C44.8005 51.895 44.7841 51.773 44.7665 51.6414C44.7267 51.3445 44.6804 50.9988 44.8005 50.7946C44.9286 50.5769 45.2459 50.5106 45.5077 50.4558C45.6003 50.4365 45.686 50.4185 45.7539 50.3959C46.4087 50.228 46.9876 49.8439 47.3966 49.3058C47.8057 48.7677 48.021 48.1072 48.0076 47.4315C47.8342 45.9579 46.3608 45.5245 45.0779 45.5765C44.3799 45.5409 43.6857 45.7005 43.0733 46.0373C42.4608 46.3741 41.9545 46.8749 41.6108 47.4835C41.4393 47.7971 41.3494 48.1488 41.3494 48.5063C41.3494 48.8637 41.4393 49.2155 41.6108 49.5291C41.7842 49.8308 42.0382 50.0783 42.3444 50.2436C42.6507 50.409 42.9969 50.4857 43.3443 50.4652C43.4018 50.4652 43.4534 50.4547 43.4989 50.436C43.7044 50.3515 43.7874 50.0998 43.7418 49.8938C43.7323 49.8512 43.7174 49.8106 43.697 49.7738C43.6836 49.7497 43.6678 49.7273 43.6496 49.707C43.597 49.6483 43.5243 49.6078 43.4313 49.5984C43.4103 49.5963 43.3884 49.5958 43.3654 49.5969C43.3585 49.5973 43.3515 49.5978 43.3443 49.5984L43.3616 49.5638C43.3548 49.5646 43.3481 49.5653 43.3413 49.5659C43.3231 49.5677 43.305 49.569 43.2868 49.5698C43.1467 49.5764 43.0064 49.5564 42.8733 49.5105C42.848 49.5018 42.8231 49.4922 42.7985 49.4817C42.6711 49.4272 42.5548 49.3493 42.4557 49.2516C42.3377 49.1352 42.2471 48.9938 42.1909 48.8378C42.1347 48.6818 42.1142 48.5152 42.1308 48.3503C42.1697 48.0178 42.2939 47.701 42.4913 47.4306C42.6887 47.1603 42.9527 46.9456 43.2576 46.8074C44.2111 46.3046 46.7247 45.9232 47.0368 47.4661C47.0767 47.8141 47.0103 48.166 46.8463 48.4754C46.6823 48.7849 46.4284 49.0374 46.118 49.1997C45.8592 49.3696 45.5625 49.4715 45.2739 49.5707C44.9441 49.684 44.6248 49.7938 44.3845 49.9972C44.3584 50.0192 44.3338 50.0429 44.3104 50.0683ZM46.4848 47.554C46.5062 47.7821 46.4605 48.0115 46.3532 48.214C46.242 48.4238 46.0698 48.5951 45.8594 48.7052C45.8431 48.7137 45.8272 48.723 45.8118 48.7331C45.6214 48.8581 45.3928 48.9397 45.0925 49.0429C45.0802 49.0471 45.0677 49.0514 45.055 49.0558C44.7946 49.145 44.457 49.2607 44.1627 49.4649C44.1377 49.4244 44.1091 49.3851 44.0766 49.3474C43.9531 49.2042 43.7917 49.107 43.6095 49.0637C43.5147 49.0167 43.4067 48.9968 43.2977 49.0093C43.2159 49.0187 43.133 49.0097 43.0551 48.9828C42.9772 48.956 42.9063 48.912 42.8476 48.8542C42.7889 48.7963 42.7439 48.726 42.716 48.6486C42.6885 48.5724 42.6782 48.4911 42.6857 48.4103C42.7141 48.1751 42.8023 47.9511 42.942 47.7598C43.0827 47.5671 43.2708 47.4142 43.488 47.3157C43.4981 47.3111 43.5081 47.3062 43.5179 47.3011C43.9042 47.0974 44.6722 46.8968 45.3631 46.9272C45.7043 46.9423 45.9777 47.0119 46.1655 47.1226C46.3291 47.2188 46.4378 47.3495 46.4848 47.554ZM43.3862 51.0225C43.3785 51.0228 43.3707 51.0231 43.3629 51.0232C42.9167 51.0469 42.4725 50.9471 42.0792 50.7347C41.6817 50.5201 41.3519 50.1989 41.1268 49.8072L41.1209 49.7969C40.9046 49.4012 40.7913 48.9573 40.7913 48.5063C40.7913 48.0552 40.9047 47.6115 41.121 47.2157L41.1247 47.209C41.5194 46.5101 42.101 45.9351 42.8043 45.5482C43.5 45.1656 44.2877 44.9822 45.0806 45.0179C45.7748 44.9929 46.559 45.0951 47.2162 45.4367C47.906 45.7951 48.4506 46.4197 48.5619 47.3662C48.564 47.3842 48.5653 47.4023 48.5656 47.4204C48.5815 48.2219 48.3262 49.0054 47.841 49.6436C47.3593 50.2771 46.6793 50.7307 45.9098 50.9321C45.8155 50.9618 45.7116 50.9834 45.6357 50.9993L45.622 51.0021C45.4817 51.0315 45.3851 51.0531 45.3092 51.0831C45.2997 51.0869 45.2916 51.0904 45.285 51.0934C45.283 51.1117 45.2812 51.139 45.2816 51.1775C45.2828 51.286 45.2988 51.4116 45.3197 51.5672L45.3222 51.5859C45.3369 51.6954 45.3562 51.8388 45.3584 51.9671L45.5656 54.7297C45.5848 55.0361 45.469 55.3105 45.2542 55.4975C45.055 55.671 44.8075 55.7387 44.5881 55.7387C44.368 55.7387 44.1251 55.6708 43.9266 55.5069C43.7208 55.337 43.5908 55.0849 43.5839 54.7893L43.3771 52.0315C43.3546 51.7247 43.3489 51.3705 43.3862 51.0225ZM58.8377 62.8934L57.164 40.5491H31.3647L31.1278 61.8685C40.1459 62.8122 49.2161 63.16 58.2793 62.9096C58.4654 62.9044 58.6516 62.8991 58.8377 62.8934ZM58.2375 62.3524L56.6461 41.1073H31.9167L31.6916 61.3657C40.5098 62.2665 49.377 62.5961 58.2375 62.3524Z" fill="#101010"/>
</svg>
