<svg width="42" height="42" viewBox="0 0 42 42" fill="none" xmlns="http://www.w3.org/2000/svg">
<path d="M33.495 34.125C36.5925 30.975 38.5 26.635 38.5 21.875C38.5 12.215 30.66 4.375 21 4.375C11.34 4.375 3.5 12.215 3.5 21.875C3.5 26.635 5.38999 30.94 8.46999 34.1075" stroke="#292D32" stroke-width="1.92" stroke-miterlimit="10" stroke-linecap="round" stroke-linejoin="round"/>
<path d="M21 37.6249C24.2667 37.6249 26.915 34.9767 26.915 31.7099C26.915 28.4432 24.2667 25.7949 21 25.7949C17.7332 25.7949 15.085 28.4432 15.085 31.7099C15.085 34.9767 17.7332 37.6249 21 37.6249Z" stroke="#292D32" stroke-width="1.92" stroke-miterlimit="10" stroke-linecap="round" stroke-linejoin="round"/>
<path d="M26.6875 21H28C29.435 21 30.625 19.8275 30.625 18.375C30.625 16.94 29.435 15.75 28 15.75C26.565 15.75 25.375 16.9225 25.375 18.375V19.6875C25.375 20.405 25.97 21 26.6875 21Z" stroke="#292D32" stroke-width="1.92" stroke-miterlimit="10" stroke-linecap="round" stroke-linejoin="round"/>
</svg>
