<svg width="42" height="42" viewBox="0 0 42 42" fill="none" xmlns="http://www.w3.org/2000/svg">
<path d="M31.5006 12.53C31.3956 12.5125 31.2731 12.5125 31.1681 12.53C28.7531 12.4425 26.8281 10.465 26.8281 8.015C26.8281 5.5125 28.8406 3.5 31.3431 3.5C33.8456 3.5 35.8581 5.53 35.8581 8.015C35.8406 10.465 33.9156 12.4425 31.5006 12.53Z" stroke="#222222" stroke-width="1.96875" stroke-linecap="round" stroke-linejoin="round"/>
<path d="M29.698 25.27C32.0955 25.6725 34.738 25.2525 36.593 24.01C39.0605 22.365 39.0605 19.67 36.593 18.025C34.7205 16.7825 32.043 16.3625 29.6455 16.7825" stroke="#222222" stroke-width="1.96875" stroke-linecap="round" stroke-linejoin="round"/>
<path d="M10.4473 12.5303C10.5523 12.5128 10.6748 12.5128 10.7798 12.5303C13.1948 12.4428 15.1198 10.4652 15.1198 8.01525C15.1198 5.51275 13.1073 3.50024 10.6048 3.50024C8.10235 3.50024 6.08984 5.53025 6.08984 8.01525C6.10734 10.4652 8.03235 12.4428 10.4473 12.5303Z" stroke="#222222" stroke-width="1.96875" stroke-linecap="round" stroke-linejoin="round"/>
<path d="M12.2505 25.2703C9.85301 25.6728 7.21051 25.2528 5.35551 24.0103C2.88801 22.3653 2.88801 19.6703 5.35551 18.0253C7.22801 16.7828 9.9055 16.3628 12.303 16.7828" stroke="#222222" stroke-width="1.96875" stroke-linecap="round" stroke-linejoin="round"/>
<path d="M21.0006 25.6025C20.8956 25.585 20.7731 25.585 20.6681 25.6025C18.2531 25.515 16.3281 23.5375 16.3281 21.0875C16.3281 18.585 18.3406 16.5725 20.8431 16.5725C23.3456 16.5725 25.3581 18.6025 25.3581 21.0875C25.3406 23.5375 23.4156 25.5325 21.0006 25.6025Z" stroke="#222222" stroke-width="1.96875" stroke-linecap="round" stroke-linejoin="round"/>
<path d="M15.9073 31.1151C13.4398 32.7601 13.4398 35.4551 15.9073 37.1001C18.7073 38.9726 23.2923 38.9726 26.0923 37.1001C28.5598 35.4551 28.5598 32.7601 26.0923 31.1151C23.3098 29.2601 18.7073 29.2601 15.9073 31.1151Z" stroke="#222222" stroke-width="1.96875" stroke-linecap="round" stroke-linejoin="round"/>
</svg>
