<svg width="45" height="46" viewBox="0 0 45 46" fill="none" xmlns="http://www.w3.org/2000/svg">
<path d="M23.3641 29.7317L20.1785 33.4621C19.5069 34.2485 18.348 34.3398 17.5444 33.6884C17.3226 33.499 17.1022 33.3282 16.8804 33.1388C14.802 31.3465 12.9031 29.446 11.1838 27.4373C9.48324 25.4272 8.08171 23.3934 7.0181 21.3519C5.97172 19.2902 5.36262 17.2881 5.20949 15.3441C5.10936 14.0731 5.23796 12.8404 5.59823 11.6835C5.95702 10.508 6.58487 9.40528 7.50193 8.39263C8.60546 7.1208 9.86826 6.43827 11.2515 6.32932C11.7749 6.28809 12.3071 6.35901 12.792 6.54651C13.2957 6.73253 13.7521 7.03512 14.1269 7.49462L18.9449 13.2653C19.3182 13.7061 19.595 14.1169 19.7957 14.5149C19.9948 14.8942 20.1192 15.2793 20.1472 15.6345C20.1825 16.0831 20.087 16.542 19.8592 16.9925C19.65 17.4416 19.3302 17.9182 18.917 18.4021L17.6127 19.9907C17.4233 20.2125 17.3489 20.4629 17.3725 20.762C17.3843 20.9115 17.4133 21.0409 17.4624 21.1875C17.5303 21.3326 17.5952 21.4403 17.6414 21.5495C18.0265 22.1399 18.6692 22.898 19.5683 23.8052C20.486 24.7109 21.4612 25.6309 22.5113 26.545C22.7129 26.7172 22.9332 26.888 23.1349 27.0602C23.94 27.7303 24.0529 28.9251 23.3641 29.7317Z" fill="white"/>
<path d="M40.0687 32.9187C40.0687 33.4437 39.975 33.9875 39.7875 34.5125C39.7312 34.6625 39.675 34.8125 39.6 34.9625C39.2812 35.6375 38.8687 36.275 38.325 36.875C37.4062 37.8875 36.3937 38.6187 35.25 39.0875C35.2312 39.0875 35.2125 39.1062 35.1937 39.1062C34.0875 39.5562 32.8875 39.8 31.5937 39.8C29.6812 39.8 27.6375 39.35 25.4812 38.4312C23.325 37.5125 21.1687 36.275 19.0312 34.7188C18.3 34.175 17.5687 33.6312 16.875 33.05L23.0062 26.9187C23.5312 27.3125 24 27.6125 24.3937 27.8187C24.4875 27.8562 24.6 27.9125 24.7312 27.9687C24.8812 28.025 25.0312 28.0437 25.2 28.0437C25.5187 28.0437 25.7625 27.9313 25.9687 27.725L27.3937 26.3188C27.8625 25.85 28.3125 25.4937 28.7437 25.2687C29.175 25.0063 29.6062 24.875 30.075 24.875C30.4312 24.875 30.8062 24.95 31.2187 25.1188C31.6312 25.2875 32.0625 25.5313 32.5312 25.85L38.7375 30.2562C39.225 30.5937 39.5625 30.9875 39.7687 31.4562C39.9562 31.925 40.0687 32.3937 40.0687 32.9187Z" fill="white"/>
</svg>
