<svg width="42" height="42" viewBox="0 0 42 42" fill="none" xmlns="http://www.w3.org/2000/svg">
<path d="M38.4465 32.0773C38.4465 32.7073 38.3065 33.3548 38.009 33.9848C37.7115 34.6148 37.3265 35.2098 36.819 35.7698C35.9615 36.7148 35.0165 37.3973 33.949 37.8348C32.899 38.2723 31.7615 38.4998 30.5365 38.4998C28.7515 38.4998 26.844 38.0798 24.8315 37.2223C22.819 36.3648 20.8065 35.2098 18.8115 33.7573C16.799 32.2873 14.8915 30.6598 13.0715 28.8573C11.269 27.0373 9.64152 25.1298 8.18902 23.1348C6.75402 21.1398 5.59902 19.1448 4.75902 17.1673C3.91902 15.1723 3.49902 13.2648 3.49902 11.4448C3.49902 10.2548 3.70902 9.11726 4.12902 8.06726C4.54902 6.99976 5.21402 6.01976 6.14152 5.14476C7.26152 4.04226 8.48652 3.49976 9.78152 3.49976C10.2715 3.49976 10.7615 3.60476 11.199 3.81476C11.654 4.02476 12.0565 4.33976 12.3715 4.79476L16.4315 10.5173C16.7465 10.9548 16.974 11.3573 17.1315 11.7423C17.289 12.1098 17.3765 12.4773 17.3765 12.8098C17.3765 13.2298 17.254 13.6498 17.009 14.0523C16.7815 14.4548 16.449 14.8748 16.029 15.2948L14.699 16.6773C14.5065 16.8698 14.419 17.0973 14.419 17.3773C14.419 17.5173 14.4365 17.6398 14.4715 17.7798C14.524 17.9198 14.5765 18.0248 14.6115 18.1298C14.9265 18.7073 15.469 19.4598 16.239 20.3698C17.0265 21.2798 17.8665 22.2073 18.7765 23.1348C19.7215 24.0623 20.6315 24.9198 21.559 25.7073C22.469 26.4773 23.2215 27.0023 23.8165 27.3173C23.904 27.3523 24.009 27.4048 24.1315 27.4573C24.2715 27.5098 24.4115 27.5273 24.569 27.5273C24.8665 27.5273 25.094 27.4223 25.2865 27.2298L26.6165 25.9173C27.054 25.4798 27.474 25.1473 27.8765 24.9373C28.279 24.6923 28.6815 24.5698 29.119 24.5698C29.4515 24.5698 29.8015 24.6398 30.1865 24.7973C30.5715 24.9548 30.974 25.1823 31.4115 25.4798L37.204 29.5923C37.659 29.9073 37.974 30.2748 38.1665 30.7123C38.3415 31.1498 38.4465 31.5873 38.4465 32.0773Z" stroke="#222222" stroke-width="1.96875" stroke-miterlimit="10"/>
</svg>
