<svg width="240" height="40" viewBox="0 0 240 40" fill="none" xmlns="http://www.w3.org/2000/svg">
<g clip-path="url(#clip0_1378_2974)">
<path d="M36 0H4C1.79086 0 0 1.79086 0 4V36C0 38.2091 1.79086 40 4 40H36C38.2091 40 40 38.2091 40 36V4C40 1.79086 38.2091 0 36 0Z" fill="#14AC7B"/>
<path d="M19.999 26.9578L26.0824 25.4162L28.624 33.2495L19.999 26.9578ZM33.999 16.8328H23.2907L19.999 6.74951L16.7074 16.8328H5.99902L14.6657 23.0828L11.374 33.1662L20.0407 26.9162L25.374 23.0828L33.999 16.8328Z" fill="white"/>
<path d="M86 0H54C51.7909 0 50 1.79086 50 4V36C50 38.2091 51.7909 40 54 40H86C88.2091 40 90 38.2091 90 36V4C90 1.79086 88.2091 0 86 0Z" fill="#14AC7B"/>
<path d="M69.999 26.9578L76.0824 25.4162L78.624 33.2495L69.999 26.9578ZM83.999 16.8328H73.2907L69.999 6.74951L66.7074 16.8328H55.999L64.6657 23.0828L61.374 33.1662L70.0407 26.9162L75.374 23.0828L83.999 16.8328Z" fill="white"/>
<path d="M136 0H104C101.791 0 100 1.79086 100 4V36C100 38.2091 101.791 40 104 40H136C138.209 40 140 38.2091 140 36V4C140 1.79086 138.209 0 136 0Z" fill="#14AC7B"/>
<path d="M119.999 26.9578L126.082 25.4162L128.624 33.2495L119.999 26.9578ZM133.999 16.8328H123.291L119.999 6.74951L116.707 16.8328H105.999L114.666 23.0828L111.374 33.1662L120.041 26.9162L125.374 23.0828L133.999 16.8328Z" fill="white"/>
<path d="M186 0H154C151.791 0 150 1.79086 150 4V36C150 38.2091 151.791 40 154 40H186C188.209 40 190 38.2091 190 36V4C190 1.79086 188.209 0 186 0Z" fill="#14AC7B"/>
<path d="M169.999 26.9578L176.082 25.4162L178.624 33.2495L169.999 26.9578ZM183.999 16.8328H173.291L169.999 6.74951L166.707 16.8328H155.999L164.666 23.0828L161.374 33.1662L170.041 26.9162L175.374 23.0828L183.999 16.8328Z" fill="white"/>
<path d="M236 0H204C201.791 0 200 1.79086 200 4V36C200 38.2091 201.791 40 204 40H236C238.209 40 240 38.2091 240 36V4C240 1.79086 238.209 0 236 0Z" fill="#14AC7B"/>
<path d="M219.999 26.9578L226.082 25.4162L228.624 33.2495L219.999 26.9578ZM233.999 16.8328H223.291L219.999 6.74951L216.707 16.8328H205.999L214.666 23.0828L211.374 33.1662L220.041 26.9162L225.374 23.0828L233.999 16.8328Z" fill="white"/>
</g>
<defs>
<clipPath id="clip0_1378_2974">
<rect width="240" height="40" fill="white"/>
</clipPath>
</defs>
</svg>
