<svg width="100" height="26" viewBox="0 0 100 26" fill="none" xmlns="http://www.w3.org/2000/svg">
<path d="M12.9996 19.3019L18.509 17.9057L20.8109 25L12.9996 19.3019ZM25.6788 10.1321H15.9807L12.9996 1L10.0184 10.1321H0.320312L8.16937 15.7925L5.18823 24.9245L13.0373 19.2641L17.8675 15.7925L25.6788 10.1321Z" fill="#14AC7B"/>
<path d="M35.7803 6.625V18H33.4443V6.625H35.7803ZM39.2803 6.625V8.46094H29.999V6.625H39.2803ZM42.1787 11.3906V18H39.9287V9.54688H42.0459L42.1787 11.3906ZM44.7256 9.49219L44.6865 11.5781C44.5771 11.5625 44.4443 11.5495 44.2881 11.5391C44.137 11.5234 43.999 11.5156 43.874 11.5156C43.5563 11.5156 43.2803 11.5573 43.0459 11.6406C42.8167 11.7188 42.624 11.8359 42.4678 11.9922C42.3167 12.1484 42.2021 12.3385 42.124 12.5625C42.0511 12.7865 42.0094 13.0417 41.999 13.3281L41.5459 13.1875C41.5459 12.6406 41.6006 12.138 41.71 11.6797C41.8193 11.2161 41.9782 10.8125 42.1865 10.4688C42.4001 10.125 42.6605 9.85938 42.9678 9.67188C43.2751 9.48438 43.6266 9.39062 44.0225 9.39062C44.1475 9.39062 44.2751 9.40104 44.4053 9.42188C44.5355 9.4375 44.6423 9.46094 44.7256 9.49219ZM50.7881 15.9766V9.54688H53.0381V18H50.9209L50.7881 15.9766ZM51.0381 14.2422L51.7021 14.2266C51.7021 14.7891 51.637 15.3125 51.5068 15.7969C51.3766 16.276 51.1813 16.6927 50.9209 17.0469C50.6605 17.3958 50.3324 17.6693 49.9365 17.8672C49.5407 18.0599 49.0745 18.1562 48.5381 18.1562C48.1266 18.1562 47.7464 18.099 47.3975 17.9844C47.0537 17.8646 46.7568 17.6797 46.5068 17.4297C46.262 17.1745 46.0693 16.849 45.9287 16.4531C45.7933 16.0521 45.7256 15.5703 45.7256 15.0078V9.54688H47.9756V15.0234C47.9756 15.2734 48.0042 15.4844 48.0615 15.6562C48.124 15.8281 48.21 15.9688 48.3193 16.0781C48.4287 16.1875 48.5563 16.2656 48.7021 16.3125C48.8532 16.3594 49.0199 16.3828 49.2021 16.3828C49.6657 16.3828 50.0303 16.2891 50.2959 16.1016C50.5667 15.9141 50.7568 15.6589 50.8662 15.3359C50.9808 15.0078 51.0381 14.6432 51.0381 14.2422ZM59.3271 15.6641C59.3271 15.5026 59.2803 15.3568 59.1865 15.2266C59.0928 15.0964 58.9183 14.9766 58.6631 14.8672C58.4131 14.7526 58.0511 14.6484 57.5771 14.5547C57.1501 14.4609 56.7516 14.3438 56.3818 14.2031C56.0173 14.0573 55.6995 13.8828 55.4287 13.6797C55.1631 13.4766 54.9548 13.237 54.8037 12.9609C54.6527 12.6797 54.5771 12.3594 54.5771 12C54.5771 11.6458 54.6527 11.3125 54.8037 11C54.96 10.6875 55.1813 10.4115 55.4678 10.1719C55.7594 9.92708 56.1136 9.73698 56.5303 9.60156C56.9521 9.46094 57.4261 9.39062 57.9521 9.39062C58.6865 9.39062 59.3167 9.50781 59.8428 9.74219C60.374 9.97656 60.7803 10.2995 61.0615 10.7109C61.348 11.1172 61.4912 11.5807 61.4912 12.1016H59.2412C59.2412 11.8828 59.1943 11.6875 59.1006 11.5156C59.012 11.3385 58.8714 11.2005 58.6787 11.1016C58.4912 10.9974 58.2464 10.9453 57.9443 10.9453C57.6943 10.9453 57.4782 10.9896 57.2959 11.0781C57.1136 11.1615 56.973 11.276 56.874 11.4219C56.7803 11.5625 56.7334 11.7188 56.7334 11.8906C56.7334 12.0208 56.7594 12.138 56.8115 12.2422C56.8688 12.3411 56.96 12.4323 57.085 12.5156C57.21 12.599 57.3714 12.6771 57.5693 12.75C57.7725 12.8177 58.0225 12.8802 58.3193 12.9375C58.9287 13.0625 59.473 13.2266 59.9521 13.4297C60.4313 13.6276 60.8115 13.8984 61.0928 14.2422C61.374 14.5807 61.5146 15.026 61.5146 15.5781C61.5146 15.9531 61.4313 16.2969 61.2646 16.6094C61.098 16.9219 60.8584 17.1953 60.5459 17.4297C60.2334 17.6589 59.8584 17.8385 59.4209 17.9688C58.9886 18.0938 58.5016 18.1562 57.96 18.1562C57.1735 18.1562 56.5068 18.0156 55.96 17.7344C55.4183 17.4531 55.0068 17.0964 54.7256 16.6641C54.4495 16.2266 54.3115 15.7786 54.3115 15.3203H56.4443C56.4548 15.6276 56.5329 15.875 56.6787 16.0625C56.8298 16.25 57.0199 16.3854 57.249 16.4688C57.4834 16.5521 57.736 16.5938 58.0068 16.5938C58.2985 16.5938 58.5407 16.5547 58.7334 16.4766C58.9261 16.3932 59.0719 16.2839 59.1709 16.1484C59.2751 16.0078 59.3271 15.8464 59.3271 15.6641ZM67.1162 9.54688V11.1406H62.1943V9.54688H67.1162ZM63.4131 7.46094H65.6631V15.4531C65.6631 15.6979 65.6943 15.8854 65.7568 16.0156C65.8245 16.1458 65.9235 16.237 66.0537 16.2891C66.1839 16.3359 66.348 16.3594 66.5459 16.3594C66.6865 16.3594 66.8115 16.3542 66.9209 16.3438C67.0355 16.3281 67.1318 16.3125 67.21 16.2969L67.2178 17.9531C67.0251 18.0156 66.8167 18.0651 66.5928 18.1016C66.3688 18.138 66.1214 18.1562 65.8506 18.1562C65.3558 18.1562 64.9235 18.0755 64.5537 17.9141C64.1891 17.7474 63.9079 17.4818 63.71 17.1172C63.512 16.7526 63.4131 16.2734 63.4131 15.6797V7.46094ZM70.6475 11.1719V21.25H68.3975V9.54688H70.4834L70.6475 11.1719ZM75.999 13.6797V13.8438C75.999 14.4583 75.9261 15.0286 75.7803 15.5547C75.6396 16.0807 75.4313 16.5391 75.1553 16.9297C74.8792 17.3151 74.5355 17.6172 74.124 17.8359C73.7178 18.0495 73.249 18.1562 72.7178 18.1562C72.2021 18.1562 71.7542 18.0521 71.374 17.8438C70.9938 17.6354 70.6735 17.3438 70.4131 16.9688C70.1579 16.5885 69.9521 16.1484 69.7959 15.6484C69.6396 15.1484 69.5199 14.612 69.4365 14.0391V13.6094C69.5199 12.9948 69.6396 12.4323 69.7959 11.9219C69.9521 11.4062 70.1579 10.9609 70.4131 10.5859C70.6735 10.2057 70.9912 9.91146 71.3662 9.70312C71.7464 9.49479 72.1917 9.39062 72.7021 9.39062C73.2386 9.39062 73.71 9.49219 74.1162 9.69531C74.5277 9.89844 74.8714 10.1901 75.1475 10.5703C75.4287 10.9505 75.6396 11.4036 75.7803 11.9297C75.9261 12.4557 75.999 13.0391 75.999 13.6797ZM73.7412 13.8438V13.6797C73.7412 13.3203 73.71 12.9896 73.6475 12.6875C73.5902 12.3802 73.4964 12.112 73.3662 11.8828C73.2412 11.6536 73.0745 11.4766 72.8662 11.3516C72.6631 11.2214 72.4157 11.1562 72.124 11.1562C71.8167 11.1562 71.5537 11.2057 71.335 11.3047C71.1214 11.4036 70.9469 11.5469 70.8115 11.7344C70.6761 11.9219 70.5745 12.1458 70.5068 12.4062C70.4391 12.6667 70.3975 12.9609 70.3818 13.2891V14.375C70.4079 14.7604 70.4808 15.1068 70.6006 15.4141C70.7204 15.7161 70.9053 15.9557 71.1553 16.1328C71.4053 16.3099 71.7334 16.3984 72.1396 16.3984C72.4365 16.3984 72.6865 16.3333 72.8896 16.2031C73.0928 16.0677 73.2568 15.8828 73.3818 15.6484C73.512 15.4141 73.6032 15.1432 73.6553 14.8359C73.7126 14.5286 73.7412 14.1979 73.7412 13.8438ZM79.7725 9.54688V18H77.5146V9.54688H79.7725ZM77.374 7.34375C77.374 7.01562 77.4886 6.74479 77.7178 6.53125C77.9469 6.31771 78.2542 6.21094 78.6396 6.21094C79.0199 6.21094 79.3245 6.31771 79.5537 6.53125C79.7881 6.74479 79.9053 7.01562 79.9053 7.34375C79.9053 7.67188 79.7881 7.94271 79.5537 8.15625C79.3245 8.36979 79.0199 8.47656 78.6396 8.47656C78.2542 8.47656 77.9469 8.36979 77.7178 8.15625C77.4886 7.94271 77.374 7.67188 77.374 7.34375ZM84.0068 6V18H81.749V6H84.0068ZM85.5068 13.8594V13.6953C85.5068 13.0755 85.5954 12.5052 85.7725 11.9844C85.9495 11.4583 86.2074 11.0026 86.5459 10.6172C86.8844 10.2318 87.3011 9.93229 87.7959 9.71875C88.2907 9.5 88.8584 9.39062 89.499 9.39062C90.1396 9.39062 90.71 9.5 91.21 9.71875C91.71 9.93229 92.1292 10.2318 92.4678 10.6172C92.8115 11.0026 93.0719 11.4583 93.249 11.9844C93.4261 12.5052 93.5146 13.0755 93.5146 13.6953V13.8594C93.5146 14.474 93.4261 15.0443 93.249 15.5703C93.0719 16.0911 92.8115 16.5469 92.4678 16.9375C92.1292 17.3229 91.7126 17.6224 91.2178 17.8359C90.723 18.0495 90.1553 18.1562 89.5146 18.1562C88.874 18.1562 88.3037 18.0495 87.8037 17.8359C87.3089 17.6224 86.8896 17.3229 86.5459 16.9375C86.2074 16.5469 85.9495 16.0911 85.7725 15.5703C85.5954 15.0443 85.5068 14.474 85.5068 13.8594ZM87.7568 13.6953V13.8594C87.7568 14.2135 87.7881 14.5443 87.8506 14.8516C87.9131 15.1589 88.012 15.4297 88.1475 15.6641C88.2881 15.8932 88.4704 16.0729 88.6943 16.2031C88.9183 16.3333 89.1917 16.3984 89.5146 16.3984C89.8271 16.3984 90.0954 16.3333 90.3193 16.2031C90.5433 16.0729 90.723 15.8932 90.8584 15.6641C90.9938 15.4297 91.0928 15.1589 91.1553 14.8516C91.223 14.5443 91.2568 14.2135 91.2568 13.8594V13.6953C91.2568 13.3516 91.223 13.0286 91.1553 12.7266C91.0928 12.4193 90.9912 12.1484 90.8506 11.9141C90.7152 11.6745 90.5355 11.487 90.3115 11.3516C90.0876 11.2161 89.8167 11.1484 89.499 11.1484C89.1813 11.1484 88.9105 11.2161 88.6865 11.3516C88.4678 11.487 88.2881 11.6745 88.1475 11.9141C88.012 12.1484 87.9131 12.4193 87.8506 12.7266C87.7881 13.0286 87.7568 13.3516 87.7568 13.6953ZM99.0381 9.54688V11.1406H94.1162V9.54688H99.0381ZM95.335 7.46094H97.585V15.4531C97.585 15.6979 97.6162 15.8854 97.6787 16.0156C97.7464 16.1458 97.8454 16.237 97.9756 16.2891C98.1058 16.3359 98.2699 16.3594 98.4678 16.3594C98.6084 16.3594 98.7334 16.3542 98.8428 16.3438C98.9574 16.3281 99.0537 16.3125 99.1318 16.2969L99.1396 17.9531C98.9469 18.0156 98.7386 18.0651 98.5146 18.1016C98.2907 18.138 98.0433 18.1562 97.7725 18.1562C97.2777 18.1562 96.8454 18.0755 96.4756 17.9141C96.111 17.7474 95.8298 17.4818 95.6318 17.1172C95.4339 16.7526 95.335 16.2734 95.335 15.6797V7.46094Z" fill="black"/>
</svg>
