<svg width="45" height="46" viewBox="0 0 45 46" fill="none" xmlns="http://www.w3.org/2000/svg">
<path d="M41.2123 21.8936C40.5748 11.0186 30.6935 2.63737 19.3123 4.51237C11.4748 5.80612 5.19357 12.1623 3.97482 19.9998C3.26232 24.5373 4.19986 28.8311 6.24361 32.3748L4.57483 38.5811C4.19983 39.9873 5.49354 41.2623 6.88104 40.8686L12.9936 39.1811C15.7686 40.8124 19.0123 41.7498 22.481 41.7498C33.056 41.7498 41.831 32.4311 41.2123 21.8936ZM31.6498 29.9748C31.4811 30.3123 31.2748 30.6311 31.0123 30.9311C30.5435 31.4374 30.0373 31.8124 29.4748 32.0374C28.9123 32.2811 28.2935 32.3936 27.6373 32.3936C26.681 32.3936 25.6498 32.1686 24.581 31.6999C23.4935 31.2311 22.4248 30.6123 21.3561 29.8436C20.2686 29.0561 19.2561 28.1748 18.2811 27.2186C17.3061 26.2436 16.4435 25.2123 15.656 24.1436C14.8873 23.0748 14.2686 22.0061 13.8186 20.9373C13.3686 19.8686 13.1436 18.8374 13.1436 17.8624C13.1436 17.2249 13.2561 16.6061 13.4811 16.0436C13.7061 15.4624 14.0624 14.9374 14.5686 14.4686C15.1686 13.8686 15.8248 13.5874 16.5186 13.5874C16.7811 13.5874 17.0435 13.6436 17.2873 13.7561C17.531 13.8686 17.7561 14.0374 17.9248 14.2811L20.0998 17.3561C20.2685 17.5998 20.3998 17.8061 20.4748 18.0123C20.5685 18.2186 20.606 18.4061 20.606 18.5936C20.606 18.8186 20.5311 19.0436 20.3998 19.2686C20.2686 19.4936 20.0998 19.7186 19.8748 19.9436L19.1623 20.6936C19.0498 20.8061 19.0123 20.9186 19.0123 21.0686C19.0123 21.1436 19.031 21.2186 19.0498 21.2936C19.0873 21.3686 19.1061 21.4248 19.1248 21.4811C19.2936 21.7998 19.5935 22.1936 20.006 22.6811C20.4373 23.1686 20.8874 23.6748 21.3749 24.1623C21.8811 24.6686 22.3686 25.1186 22.8748 25.5498C23.3623 25.9623 23.7748 26.2436 24.0935 26.4124C24.1498 26.4311 24.2061 26.4686 24.2623 26.4873C24.3373 26.5248 24.4123 26.5249 24.5061 26.5249C24.6748 26.5249 24.7874 26.4686 24.8999 26.3561L25.6123 25.6436C25.856 25.3999 26.0811 25.2311 26.2873 25.1186C26.5123 24.9874 26.7186 24.9123 26.9623 24.9123C27.1498 24.9123 27.3373 24.9498 27.5436 25.0436C27.7498 25.1373 27.9748 25.2499 28.1998 25.4186L31.3123 27.6311C31.5561 27.7998 31.7248 28.0061 31.8373 28.2311C31.931 28.4749 31.9873 28.6998 31.9873 28.9623C31.8748 29.2811 31.7998 29.6373 31.6498 29.9748Z" fill="white"/>
</svg>
