<svg width="29" height="28" viewBox="0 0 29 28" fill="none" xmlns="http://www.w3.org/2000/svg">
<mask id="mask0_1378_3507" style="mask-type:luminance" maskUnits="userSpaceOnUse" x="0" y="0" width="28" height="27">
<path d="M27.2607 0H0.490234V26.9797H27.2607V0Z" fill="white"/>
</mask>
<g mask="url(#mask0_1378_3507)">
<path d="M1.51786 13.7007C1.51723 15.9675 2.10953 18.1808 3.23577 20.1317L1.41016 26.7974L8.23161 25.0088C10.1183 26.0359 12.2322 26.5741 14.3804 26.5742H14.3861C21.4776 26.5742 27.2504 20.8036 27.2534 13.7108C27.2547 10.2738 25.9175 7.04195 23.4878 4.61044C21.0586 2.17913 17.8279 0.839459 14.3856 0.837891C7.29318 0.837891 1.52078 6.60819 1.51786 13.7007Z" fill="url(#paint0_linear_1378_3507)"/>
<path d="M1.05916 13.6963C1.05843 16.0447 1.67195 18.3372 2.83835 20.3579L0.947266 27.2625L8.01332 25.4098C9.96025 26.4713 12.1523 27.031 14.3828 27.0319H14.3885C21.7345 27.0319 27.7146 21.0537 27.7177 13.7069C27.719 10.1465 26.3336 6.79835 23.8172 4.27973C21.3005 1.76142 17.9541 0.373534 14.3885 0.37207C7.04132 0.37207 1.06209 6.34943 1.05916 13.6963ZM5.26725 20.0099L5.00341 19.5911C3.89432 17.8276 3.30892 15.7897 3.30976 13.6971C3.31206 7.59059 8.28175 2.62247 14.3927 2.62247C17.3521 2.62372 20.1333 3.77737 22.2252 5.87048C24.3169 7.96381 25.468 10.7465 25.4672 13.7061C25.4645 19.8126 20.4947 24.7814 14.3885 24.7814H14.3841C12.3959 24.7803 10.446 24.2464 8.74543 23.2373L8.34073 22.9974L4.14759 24.0967L5.26725 20.0099Z" fill="url(#paint1_linear_1378_3507)"/>
<path d="M11.0567 8.12618C10.8072 7.57163 10.5446 7.56044 10.3073 7.55072C10.113 7.54235 9.89093 7.54298 9.66903 7.54298C9.44692 7.54298 9.08604 7.62653 8.781 7.9596C8.47565 8.29297 7.61523 9.0986 7.61523 10.7372C7.61523 12.3757 8.80871 13.9594 8.97509 14.1818C9.14167 14.4038 11.2791 17.8739 14.6643 19.2089C17.4777 20.3183 18.0503 20.0977 18.6609 20.042C19.2716 19.9866 20.6314 19.2366 20.9088 18.4589C21.1865 17.6813 21.1865 17.0148 21.1032 16.8755C21.02 16.7367 20.7979 16.6534 20.4648 16.4869C20.1318 16.3204 18.4943 15.5146 18.189 15.4034C17.8837 15.2924 17.6617 15.2369 17.4396 15.5704C17.2174 15.9034 16.5797 16.6534 16.3853 16.8755C16.1911 17.0981 15.9967 17.1258 15.6637 16.9592C15.3304 16.7921 14.2578 16.4409 12.9853 15.3064C11.9952 14.4236 11.3268 13.3334 11.1325 12.9999C10.9382 12.667 11.1117 12.4865 11.2787 12.3205C11.4283 12.1713 11.6118 11.9316 11.7785 11.7372C11.9446 11.5427 12 11.4039 12.1111 11.1818C12.2222 10.9595 12.1666 10.765 12.0835 10.5984C12 10.4318 11.3528 8.78467 11.0567 8.12618Z" fill="white"/>
</g>
<defs>
<linearGradient id="paint0_linear_1378_3507" x1="1293.57" y1="2596.79" x2="1293.57" y2="0.837891" gradientUnits="userSpaceOnUse">
<stop stop-color="#1FAF38"/>
<stop offset="1" stop-color="#60D669"/>
</linearGradient>
<linearGradient id="paint1_linear_1378_3507" x1="1339.47" y1="2689.42" x2="1339.47" y2="0.37207" gradientUnits="userSpaceOnUse">
<stop stop-color="#F9F9F9"/>
<stop offset="1" stop-color="white"/>
</linearGradient>
</defs>
</svg>
