<svg width="32" height="32" viewBox="0 0 32 32" fill="none" xmlns="http://www.w3.org/2000/svg">
<path d="M29.3343 3.00071C28.9876 3.00018 28.6407 3.1335 28.3786 3.40174C23.3836 8.4039 18.3875 13.4033 13.3903 18.4004C12.973 18.8178 12.3597 18.8178 11.9424 18.4004L8.9541 15.4109C8.42987 14.8742 7.56661 14.8754 7.04395 15.4134C6.532 15.9407 6.54158 16.7839 7.06738 17.2975L10.057 20.2871C11.4863 21.7164 13.8477 21.7164 15.277 20.2871C20.2778 15.2922 25.2658 10.2846 30.2653 5.28838C30.791 4.7748 30.8019 3.93284 30.29 3.40557C30.0286 3.13652 29.6811 3.00124 29.3343 3.00071ZM12.6663 6.33274C6.42291 6.33274 1.33301 11.4226 1.33301 17.6661C1.33301 23.9095 6.42291 28.9994 12.6663 28.9994C18.7946 28.9994 23.8011 24.0924 23.984 18.0072C23.9929 17.257 23.38 16.6473 22.6299 16.6583C21.895 16.6683 21.3074 17.2723 21.3161 18.0072C21.1369 22.6488 17.3535 26.3327 12.6663 26.3327C7.86408 26.3327 4.00097 22.4683 4.00097 17.6661C4.00097 12.8638 7.86408 8.9994 12.6663 8.9994C14.1055 8.9994 15.4534 9.35337 16.6429 9.97076C17.2882 10.3535 18.1198 10.1338 18.4854 9.47857C18.8434 8.83676 18.6144 8.02602 17.9736 7.66606C16.3884 6.81934 14.5819 6.33274 12.6663 6.33274Z" fill="#FFBD59"/>
</svg>
